<svg width="32" height="32" viewBox="0 0 32 32" fill="none" xmlns="http://www.w3.org/2000/svg">
  <rect width="32" height="32" rx="8" fill="url(#gradient)"/>
  <path d="M16 8C16.5523 8 17 8.44772 17 9V15H23C23.5523 15 24 15.4477 24 16C24 16.5523 23.5523 17 23 17H17V23C17 23.5523 16.5523 24 16 24C15.4477 24 15 23.5523 15 23V17H9C8.44772 17 8 16.5523 8 16C8 15.4477 8.44772 15 9 15H15V9C15 8.44772 15.4477 8 16 8Z" fill="white"/>
  <defs>
    <linearGradient id="gradient" x1="0" y1="0" x2="32" y2="32" gradientUnits="userSpaceOnUse">
      <stop stop-color="#1E8449"/>
      <stop offset="1" stop-color="#2980B9"/>
    </linearGradient>
  </defs>
</svg>